<?xml version="1.0" encoding="utf-8"?>
<!-- Generator: Adobe Illustrator 26.5.1, SVG Export Plug-In . SVG Version: 6.00 Build 0)  -->
<svg version="1.1" xmlns="http://www.w3.org/2000/svg" xmlns:xlink="http://www.w3.org/1999/xlink" x="0px" y="0px"
	 viewBox="0 0 777.1 553.1" style="enable-background:new 0 0 777.1 553.1;" xml:space="preserve">
<style type="text/css">
	.st0{display:none;}
	.st1{fill:none;stroke:#010101;stroke-width:0.5;stroke-linecap:round;stroke-linejoin:round;stroke-miterlimit:10;}
	.st2{fill:#7F5C25;stroke:#000000;stroke-width:0.5;stroke-miterlimit:10;}
	.st3{fill:#6DBE46;stroke:#000000;stroke-width:0.5;stroke-miterlimit:10;}
	.st4{fill:#005998;stroke:#000000;stroke-width:0.5;stroke-miterlimit:10;}
	.st5{fill:none;stroke:#231F20;stroke-width:0.5;stroke-miterlimit:10;}
	.st6{fill:none;stroke:#7F5C25;stroke-miterlimit:10;}
	.st7{fill:none;stroke:#005998;stroke-miterlimit:10;}
	.st8{fill:none;stroke:#6DBE46;stroke-miterlimit:10;}
	.st9{font-family:'DINPro-Regular';}
	.st10{font-size:12px;}
</style>
<g id="Layer_2" class="st0">
	
		<image style="display:inline;overflow:visible;" width="3000" height="4000" xlink:href="../../V2/IMG_20230713_113021.jpg"  transform="matrix(0.4152 0 0 0.4152 223.4374 -1065.379)">
	</image>
</g>
<g id="Layer_1">
	<g>
		<line class="st1" x1="547.7" y1="51.4" x2="547.7" y2="472.1"/>
		<path class="st1" d="M547.7,472.1c0.2,0-2.3,0-4.5,0"/>
		<line class="st1" x1="535" y1="51.4" x2="543.2" y2="51.4"/>
		<line class="st1" x1="413" y1="51.4" x2="421.2" y2="51.4"/>
		<line class="st1" x1="525.4" y1="472.1" x2="430.9" y2="472.1"/>
		<line class="st1" x1="543.2" y1="472.1" x2="535" y2="472.1"/>
		<path class="st1" d="M408.6,51.4c-0.2,0,2.3,0,4.5,0"/>
		<line class="st1" x1="408.6" y1="51.4" x2="408.6" y2="472.1"/>
		<line class="st1" x1="413" y1="472.1" x2="421.2" y2="472.1"/>
		<line class="st1" x1="422.4" y1="465.4" x2="422.4" y2="471"/>
		<path class="st1" d="M533.9,52.5c-0.1-0.6,0.6-1.2,1.1-1.1"/>
		<path class="st1" d="M422.4,58.2c-0.1,1.9,1.8,3.7,3.7,3.7c1.9,0,3.8-1.8,3.7-3.7"/>
		<path class="st1" d="M430.9,472.1c-0.6,0.1-1.2-0.6-1.1-1.1"/>
		<line class="st1" x1="502.5" y1="443.3" x2="501.2" y2="443.3"/>
		<line class="st1" x1="481.9" y1="443.3" x2="468.4" y2="443.3"/>
		<line class="st1" x1="451.3" y1="470.2" x2="464.8" y2="470.2"/>
		<line class="st1" x1="485.5" y1="470.2" x2="499" y2="470.2"/>
		<line class="st1" x1="464.8" y1="466.8" x2="464.8" y2="470.2"/>
		<path class="st2" d="M487.1,456.8c0,2.8,2.3,5.2,5.2,5.2s5.2-2.3,5.2-5.2s-2.3-5.2-5.2-5.2S487.1,454,487.1,456.8"/>
		<path class="st1" d="M433.8,106.9c2.4,0.1,5.2-1,7.1-3c2-2,3-4.8,3-7.1"/>
		<line class="st1" x1="443.9" y1="93.4" x2="443.9" y2="96.8"/>
		<path class="st1" d="M443.9,81c0-0.1,0-0.2,0-0.2"/>
		<path class="st1" d="M443.9,79.5c-0.2,0,2.3,0,4.5,0"/>
		<line class="st1" x1="414.7" y1="443.3" x2="541.5" y2="443.3"/>
		<line class="st1" x1="448.4" y1="79.5" x2="541.5" y2="79.5"/>
		<line class="st1" x1="519.9" y1="65.8" x2="519.9" y2="52.3"/>
		<line class="st1" x1="521" y1="471.2" x2="521" y2="457.8"/>
		<line class="st1" x1="443.9" y1="81" x2="443.9" y2="93.4"/>
		<line class="st1" x1="521" y1="457.8" x2="541" y2="457.8"/>
		<line class="st1" x1="437.5" y1="471.2" x2="521" y2="471.2"/>
		<line class="st1" x1="437.5" y1="457.8" x2="437.5" y2="471.2"/>
		<line class="st1" x1="437.5" y1="457.8" x2="414.7" y2="457.8"/>
		<line class="st1" x1="436.4" y1="65.8" x2="414.7" y2="65.8"/>
		<line class="st1" x1="436.4" y1="52.3" x2="436.4" y2="65.8"/>
		<line class="st1" x1="519.9" y1="52.3" x2="436.4" y2="52.3"/>
		<line class="st1" x1="519.9" y1="65.8" x2="541" y2="65.8"/>
		<line class="st1" x1="451.3" y1="443.3" x2="451.3" y2="446.6"/>
		<line class="st1" x1="451.3" y1="466.8" x2="451.3" y2="470.2"/>
		<line class="st1" x1="468.4" y1="466.8" x2="468.4" y2="470.2"/>
		<line class="st1" x1="485.5" y1="466.8" x2="485.5" y2="470.2"/>
		<line class="st1" x1="464.8" y1="446.6" x2="464.8" y2="466.8"/>
		<line class="st1" x1="468.4" y1="446.6" x2="468.4" y2="443.3"/>
		<line class="st1" x1="481.9" y1="443.3" x2="481.9" y2="446.6"/>
		<line class="st1" x1="485.5" y1="446.6" x2="485.5" y2="443.3"/>
		<line class="st1" x1="499" y1="443.3" x2="499" y2="446.6"/>
		<line class="st1" x1="464.8" y1="443.3" x2="464.8" y2="446.6"/>
		<path class="st3" d="M452.9,456.7c0,2.8,2.3,5.2,5.2,5.2s5.2-2.3,5.2-5.2c0-2.8-2.3-5.2-5.2-5.2S452.9,453.9,452.9,456.7"/>
		<path class="st4" d="M470,456.6c0,2.8,2.3,5.2,5.2,5.2s5.2-2.3,5.2-5.2s-2.3-5.2-5.2-5.2S470,453.8,470,456.6"/>
		<line class="st1" x1="481.9" y1="466.8" x2="481.9" y2="446.6"/>
		<line class="st1" x1="468.4" y1="446.6" x2="468.4" y2="466.8"/>
		<line class="st1" x1="499" y1="446.6" x2="499" y2="466.8"/>
		<line class="st1" x1="451.3" y1="446.6" x2="451.3" y2="466.8"/>
		<line class="st1" x1="485.5" y1="446.6" x2="485.5" y2="466.8"/>
		<line class="st1" x1="481.9" y1="466.8" x2="481.9" y2="470.2"/>
		<line class="st1" x1="499" y1="466.8" x2="499" y2="470.2"/>
		<line class="st1" x1="447.6" y1="443.3" x2="447.6" y2="470.2"/>
		<line class="st1" x1="502.5" y1="470.2" x2="502.5" y2="443.3"/>
		<line class="st1" x1="499" y1="470.2" x2="501.2" y2="470.2"/>
		<line class="st1" x1="481.9" y1="470.2" x2="485.5" y2="470.2"/>
		<line class="st1" x1="468.4" y1="470.2" x2="481.9" y2="470.2"/>
		<line class="st1" x1="464.8" y1="470.2" x2="468.4" y2="470.2"/>
		<line class="st1" x1="449" y1="470.2" x2="451.3" y2="470.2"/>
		<line class="st1" x1="447.6" y1="470.2" x2="449" y2="470.2"/>
		<line class="st1" x1="501.2" y1="470.2" x2="502.5" y2="470.2"/>
		<line class="st1" x1="449" y1="443.3" x2="447.6" y2="443.3"/>
		<line class="st1" x1="451.3" y1="443.3" x2="449" y2="443.3"/>
		<line class="st1" x1="464.8" y1="443.3" x2="451.3" y2="443.3"/>
		<line class="st1" x1="468.4" y1="443.3" x2="464.8" y2="443.3"/>
		<line class="st1" x1="485.5" y1="443.3" x2="481.9" y2="443.3"/>
		<line class="st1" x1="499" y1="443.3" x2="485.5" y2="443.3"/>
		<line class="st1" x1="501.2" y1="443.3" x2="499" y2="443.3"/>
		<line class="st1" x1="414.7" y1="472.1" x2="414.7" y2="51.4"/>
		<path class="st1" d="M429.8,465.4c0.1-1.9-1.8-3.7-3.7-3.7c-1.9,0-3.8,1.8-3.7,3.7"/>
		<path class="st1" d="M526.5,471c0.1,0.6-0.6,1.2-1.1,1.1"/>
		<path class="st1" d="M533.9,465.4c0.1-1.9-1.8-3.7-3.7-3.7c-1.9,0-3.8,1.8-3.7,3.7"/>
		<path class="st1" d="M535,472.1c-0.6,0.1-1.2-0.6-1.1-1.1"/>
		<path class="st1" d="M421.2,51.4c0.6-0.1,1.2,0.6,1.1,1.1"/>
		<path class="st1" d="M429.8,52.5c-0.1-0.6,0.6-1.2,1.1-1.1"/>
		<path class="st1" d="M525.4,51.4c0.6-0.1,1.2,0.6,1.1,1.1"/>
		<path class="st1" d="M526.5,58.2c-0.1,1.9,1.8,3.7,3.7,3.7c1.9,0,3.8-1.8,3.7-3.7"/>
		<line class="st1" x1="541.5" y1="51.4" x2="541.5" y2="472.1"/>
		<line class="st1" x1="533.9" y1="58.2" x2="533.9" y2="52.5"/>
		<line class="st1" x1="526.5" y1="52.5" x2="526.5" y2="58.2"/>
		<line class="st1" x1="429.8" y1="58.2" x2="429.8" y2="52.5"/>
		<line class="st1" x1="422.4" y1="52.5" x2="422.4" y2="58.2"/>
		<line class="st1" x1="429.8" y1="471" x2="429.8" y2="465.4"/>
		<line class="st1" x1="526.5" y1="465.4" x2="526.5" y2="471"/>
		<line class="st1" x1="533.9" y1="471" x2="533.9" y2="465.4"/>
		<path class="st1" d="M421.2,472.1c0.6,0.1,1.2-0.6,1.1-1.1"/>
		<line class="st1" x1="443.9" y1="80.8" x2="443.9" y2="79.5"/>
		<line class="st1" x1="414.7" y1="106.9" x2="433.8" y2="106.9"/>
		<path class="st1" d="M408.6,472.1c-0.2,0,2.3,0,4.5,0"/>
		<line class="st1" x1="430.9" y1="51.4" x2="525.4" y2="51.4"/>
		<path class="st1" d="M543.2,51.4c2.2,0,4.7,0,4.5,0"/>
		<rect x="482.5" y="55.3" class="st1" width="34.8" height="18"/>
		<g>
			<circle class="st1" cx="490.4" cy="64.3" r="4.4"/>
			<circle class="st1" cx="509.4" cy="64.3" r="4.4"/>
		</g>
		<rect x="438.8" y="55.3" class="st1" width="34.8" height="18"/>
		<g>
			<circle class="st1" cx="446.7" cy="64.3" r="4.4"/>
			<circle class="st1" cx="465.8" cy="64.3" r="4.4"/>
		</g>
	</g>
	<g>
		<line class="st1" x1="720.1" y1="51.4" x2="720.1" y2="472.1"/>
		<path class="st1" d="M720.1,472.1c0.2,0-2.3,0-4.5,0"/>
		<line class="st1" x1="707.4" y1="51.4" x2="715.6" y2="51.4"/>
		<line class="st1" x1="585.4" y1="51.4" x2="593.6" y2="51.4"/>
		<line class="st1" x1="697.7" y1="472.1" x2="603.3" y2="472.1"/>
		<line class="st1" x1="715.6" y1="472.1" x2="707.4" y2="472.1"/>
		<path class="st1" d="M580.9,51.4c-0.2,0,2.3,0,4.5,0"/>
		<line class="st1" x1="580.9" y1="51.4" x2="580.9" y2="472.1"/>
		<line class="st1" x1="585.4" y1="472.1" x2="593.6" y2="472.1"/>
		<line class="st1" x1="594.7" y1="465.4" x2="594.7" y2="471"/>
		<path class="st1" d="M706.3,52.5c-0.1-0.6,0.6-1.2,1.1-1.1"/>
		<path class="st1" d="M594.7,58.2c-0.1,1.9,1.8,3.7,3.7,3.7c1.9,0,3.8-1.8,3.7-3.7"/>
		<path class="st1" d="M603.3,472.1c-0.6,0.1-1.2-0.6-1.1-1.1"/>
		<line class="st1" x1="674.9" y1="443.3" x2="673.6" y2="443.3"/>
		<line class="st1" x1="654.3" y1="443.3" x2="640.8" y2="443.3"/>
		<line class="st1" x1="623.7" y1="470.2" x2="637.2" y2="470.2"/>
		<line class="st1" x1="657.9" y1="470.2" x2="671.4" y2="470.2"/>
		<line class="st1" x1="637.2" y1="466.8" x2="637.2" y2="470.2"/>
		<path class="st2" d="M659.5,456.8c0,2.8,2.3,5.2,5.2,5.2s5.2-2.3,5.2-5.2s-2.3-5.2-5.2-5.2S659.5,454,659.5,456.8"/>
		<path class="st1" d="M606.2,106.9c2.4,0.1,5.2-1,7.1-3c2-2,3-4.8,3-7.1"/>
		<line class="st1" x1="616.3" y1="93.4" x2="616.3" y2="96.8"/>
		<path class="st1" d="M616.3,81c0-0.1,0-0.2,0-0.2"/>
		<path class="st1" d="M616.3,79.5c-0.2,0,2.3,0,4.5,0"/>
		<line class="st1" x1="587.1" y1="443.3" x2="713.9" y2="443.3"/>
		<line class="st1" x1="620.8" y1="79.5" x2="713.9" y2="79.5"/>
		<line class="st1" x1="692.2" y1="65.8" x2="692.2" y2="52.3"/>
		<line class="st1" x1="693.4" y1="471.2" x2="693.4" y2="457.8"/>
		<line class="st1" x1="616.3" y1="81" x2="616.3" y2="93.4"/>
		<line class="st1" x1="693.4" y1="457.8" x2="713.3" y2="457.8"/>
		<line class="st1" x1="609.9" y1="471.2" x2="693.4" y2="471.2"/>
		<line class="st1" x1="609.9" y1="457.8" x2="609.9" y2="471.2"/>
		<line class="st1" x1="609.9" y1="457.8" x2="587.1" y2="457.8"/>
		<line class="st1" x1="608.8" y1="65.8" x2="587.1" y2="65.8"/>
		<line class="st1" x1="608.8" y1="52.3" x2="608.8" y2="65.8"/>
		<line class="st1" x1="692.2" y1="52.3" x2="608.8" y2="52.3"/>
		<line class="st1" x1="692.2" y1="65.8" x2="713.3" y2="65.8"/>
		<line class="st1" x1="623.7" y1="443.3" x2="623.7" y2="446.6"/>
		<line class="st1" x1="623.7" y1="466.8" x2="623.7" y2="470.2"/>
		<line class="st1" x1="640.8" y1="466.8" x2="640.8" y2="470.2"/>
		<line class="st1" x1="657.9" y1="466.8" x2="657.9" y2="470.2"/>
		<line class="st1" x1="637.2" y1="446.6" x2="637.2" y2="466.8"/>
		<line class="st1" x1="640.8" y1="446.6" x2="640.8" y2="443.3"/>
		<line class="st1" x1="654.3" y1="443.3" x2="654.3" y2="446.6"/>
		<line class="st1" x1="657.9" y1="446.6" x2="657.9" y2="443.3"/>
		<line class="st1" x1="671.4" y1="443.3" x2="671.4" y2="446.6"/>
		<line class="st1" x1="637.2" y1="443.3" x2="637.2" y2="446.6"/>
		<path class="st3" d="M625.3,456.7c0,2.8,2.3,5.2,5.2,5.2s5.2-2.3,5.2-5.2c0-2.8-2.3-5.2-5.2-5.2S625.3,453.9,625.3,456.7"/>
		<path class="st4" d="M642.4,456.6c0,2.8,2.3,5.2,5.2,5.2s5.2-2.3,5.2-5.2s-2.3-5.2-5.2-5.2S642.4,453.8,642.4,456.6"/>
		<line class="st1" x1="654.3" y1="466.8" x2="654.3" y2="446.6"/>
		<line class="st1" x1="640.8" y1="446.6" x2="640.8" y2="466.8"/>
		<line class="st1" x1="671.4" y1="446.6" x2="671.4" y2="466.8"/>
		<line class="st1" x1="623.7" y1="446.6" x2="623.7" y2="466.8"/>
		<line class="st1" x1="657.9" y1="446.6" x2="657.9" y2="466.8"/>
		<line class="st1" x1="654.3" y1="466.8" x2="654.3" y2="470.2"/>
		<line class="st1" x1="671.4" y1="466.8" x2="671.4" y2="470.2"/>
		<line class="st1" x1="620" y1="443.3" x2="620" y2="470.2"/>
		<line class="st1" x1="674.9" y1="470.2" x2="674.9" y2="443.3"/>
		<line class="st1" x1="671.4" y1="470.2" x2="673.6" y2="470.2"/>
		<line class="st1" x1="654.3" y1="470.2" x2="657.9" y2="470.2"/>
		<line class="st1" x1="640.8" y1="470.2" x2="654.3" y2="470.2"/>
		<line class="st1" x1="637.2" y1="470.2" x2="640.8" y2="470.2"/>
		<line class="st1" x1="621.4" y1="470.2" x2="623.7" y2="470.2"/>
		<line class="st1" x1="620" y1="470.2" x2="621.4" y2="470.2"/>
		<line class="st1" x1="673.6" y1="470.2" x2="674.9" y2="470.2"/>
		<line class="st1" x1="621.4" y1="443.3" x2="620" y2="443.3"/>
		<line class="st1" x1="623.7" y1="443.3" x2="621.4" y2="443.3"/>
		<line class="st1" x1="637.2" y1="443.3" x2="623.7" y2="443.3"/>
		<line class="st1" x1="640.8" y1="443.3" x2="637.2" y2="443.3"/>
		<line class="st1" x1="657.9" y1="443.3" x2="654.3" y2="443.3"/>
		<line class="st1" x1="671.4" y1="443.3" x2="657.9" y2="443.3"/>
		<line class="st1" x1="673.6" y1="443.3" x2="671.4" y2="443.3"/>
		<line class="st1" x1="587.1" y1="472.1" x2="587.1" y2="51.4"/>
		<path class="st1" d="M602.1,465.4c0.1-1.9-1.8-3.7-3.7-3.7c-1.9,0-3.8,1.8-3.7,3.7"/>
		<path class="st1" d="M698.9,471c0.1,0.6-0.6,1.2-1.1,1.1"/>
		<path class="st1" d="M706.3,465.4c0.1-1.9-1.8-3.7-3.7-3.7c-1.9,0-3.8,1.8-3.7,3.7"/>
		<path class="st1" d="M707.4,472.1c-0.6,0.1-1.2-0.6-1.1-1.1"/>
		<path class="st1" d="M593.6,51.4c0.6-0.1,1.2,0.6,1.1,1.1"/>
		<path class="st1" d="M602.1,52.5c-0.1-0.6,0.6-1.2,1.1-1.1"/>
		<path class="st1" d="M697.7,51.4c0.6-0.1,1.2,0.6,1.1,1.1"/>
		<path class="st1" d="M698.9,58.2c-0.1,1.9,1.8,3.7,3.7,3.7c1.9,0,3.8-1.8,3.7-3.7"/>
		<line class="st1" x1="713.9" y1="51.4" x2="713.9" y2="472.1"/>
		<line class="st1" x1="706.3" y1="58.2" x2="706.3" y2="52.5"/>
		<line class="st1" x1="698.9" y1="52.5" x2="698.9" y2="58.2"/>
		<line class="st1" x1="602.1" y1="58.2" x2="602.1" y2="52.5"/>
		<line class="st1" x1="594.7" y1="52.5" x2="594.7" y2="58.2"/>
		<line class="st1" x1="602.1" y1="471" x2="602.1" y2="465.4"/>
		<line class="st1" x1="698.9" y1="465.4" x2="698.9" y2="471"/>
		<line class="st1" x1="706.3" y1="471" x2="706.3" y2="465.4"/>
		<path class="st1" d="M593.6,472.1c0.6,0.1,1.2-0.6,1.1-1.1"/>
		<line class="st1" x1="616.3" y1="80.8" x2="616.3" y2="79.5"/>
		<line class="st1" x1="587.1" y1="106.9" x2="606.2" y2="106.9"/>
		<path class="st1" d="M580.9,472.1c-0.2,0,2.3,0,4.5,0"/>
		<line class="st1" x1="603.3" y1="51.4" x2="697.7" y2="51.4"/>
		<path class="st1" d="M715.6,51.4c2.2,0,4.7,0,4.5,0"/>
		<rect x="654.9" y="55.3" class="st1" width="34.8" height="18"/>
		<g>
			<circle class="st1" cx="662.8" cy="64.3" r="4.4"/>
			<circle class="st1" cx="681.8" cy="64.3" r="4.4"/>
		</g>
		<rect x="611.2" y="55.3" class="st1" width="34.8" height="18"/>
		<g>
			<circle class="st1" cx="619.1" cy="64.3" r="4.4"/>
			<circle class="st1" cx="638.1" cy="64.3" r="4.4"/>
		</g>
	</g>
	<g>
		<path class="st5" d="M61.4,308.2c-4.6,0.3-5.5,3.9-6.1,5.7s-2.9,11.5-3.3,13s-1.1,4.3-1.1,6.6s0.5,4.3,0.8,5.5
			c0.3,1.3,3.4,13.7,3.6,15.2s1.3,4.6,5.1,4.6s89.1,0.3,93.7,0s5.5-3.9,6.1-5.7c0.6-1.8,2.9-11.5,3.3-13c0.4-1.5,1.1-4.3,1.1-6.6
			s-0.5-4.3-0.8-5.5s-3.4-13.7-3.6-15.2c-0.3-1.5-1.3-4.6-5.1-4.6C151.3,308.2,66,308,61.4,308.2z"/>
		<circle class="st5" cx="158.6" cy="333.5" r="4.1"/>
		<circle class="st5" cx="57.1" cy="333.5" r="4.1"/>
		
			<rect x="134.9" y="325.9" transform="matrix(-0.7071 0.7071 -0.7071 -0.7071 468.8543 459.3221)" class="st5" width="8.8" height="1.7"/>
		
			<rect x="121.5" y="325.9" transform="matrix(-0.7071 0.7071 -0.7071 -0.7071 445.8761 468.8399)" class="st5" width="8.8" height="1.7"/>
		
			<rect x="100.4" y="332.7" transform="matrix(-4.494556e-11 1 -1 -4.494556e-11 438.2932 228.7757)" class="st5" width="8.8" height="1.7"/>
		
			<rect x="85.8" y="321.6" transform="matrix(-4.494556e-11 1 -1 -4.494556e-11 412.5386 232.2274)" class="st5" width="8.8" height="1.7"/>
		
			<rect x="69.9" y="321.6" transform="matrix(-4.484254e-11 1 -1 -4.484254e-11 396.6656 248.1004)" class="st5" width="8.8" height="1.7"/>
		
			<rect x="134.9" y="340.5" transform="matrix(-0.7071 0.7071 -0.7071 -0.7071 479.1407 484.1557)" class="st5" width="8.8" height="1.7"/>
		
			<rect x="121.5" y="340.5" transform="matrix(-0.7071 0.7071 -0.7071 -0.7071 456.1625 493.6736)" class="st5" width="8.8" height="1.7"/>
		
			<rect x="119.2" y="317.5" transform="matrix(-1 -4.492419e-11 4.492419e-11 -1 265.3905 666.9561)" class="st5" width="27" height="32"/>
		<path class="st5" d="M71.8,352.9h33.7c2.5,0,4.6-2,4.6-4.6v-29.7c0-2.5-2-4.6-4.6-4.6H71.8c-2.5,0-4.6,2-4.6,4.6v29.7
			C67.2,350.9,69.3,352.9,71.8,352.9z"/>
	</g>
	<polyline class="st6" points="74.3,318 74.3,297.4 139.3,297.4 139.3,326.8 	"/>
	<polyline class="st7" points="90.2,318 90.2,287.8 274.2,287.8 274.2,496.7 474.2,496.7 474.2,461.8 	"/>
	<polyline class="st8" points="104.8,329.2 104.8,277.8 280.4,277.8 280.4,486.2 457.1,486.2 457.1,461.5 	"/>
	<polyline class="st6" points="139.3,341.3 151,341.3 151,297.1 267.4,297.1 267.4,506.2 491.3,506.2 491.3,462 	"/>
	<polyline class="st8" points="459.5,461.7 459.5,486.2 630.4,486.2 630.4,461.9 	"/>
	<polyline class="st7" points="476.2,461.7 476.2,496.7 647.5,496.7 647.5,461.5 	"/>
	<polyline class="st6" points="493.8,461.8 493.8,506.2 664.6,506.2 664.6,462 	"/>
	<text transform="matrix(1 0 0 1 79.9421 377.9048)" class="st9 st10">Power Plug</text>
</g>
</svg>
